<svg xmlns="http://www.w3.org/2000/svg" xmlns:xlink="http://www.w3.org/1999/xlink" viewBox="0 0 80.97 78.3"><defs><style>.a{fill:url(#a);}.b{fill:#764abc;}</style><linearGradient id="a" x1="42.29" y1="8.87" x2="42.29" y2="86.34" gradientTransform="translate(9.69 3.95) rotate(-0.86)" gradientUnits="userSpaceOnUse"><stop offset="0" stop-color="#12c2e9"/><stop offset="0.5" stop-color="#c471ed"/><stop offset="1" stop-color="#f64f59"/></linearGradient></defs><title>reduxTail</title><path class="a" d="M90.67,11.6l-8.57.13a1.52,1.52,0,0,0-1.11.5L61.2,35.29l-26,.39c-.87-5.64-6.65-9.57-12.89-8.76a11.88,11.88,0,0,0-6.61,3,9.64,9.64,0,0,0,.21,14.61A12.34,12.34,0,0,0,30.2,45.75L44.6,60.9a1.49,1.49,0,0,0,1.11.45L46,80.07,35.25,87.59A1.21,1.21,0,0,0,35,89.4a1.44,1.44,0,0,0,1.15.5l28.56-.43a1.36,1.36,0,0,0,1.41-1.31,1.2,1.2,0,0,0-.59-1l-11-7.2-.28-18.72a1.51,1.51,0,0,0,1.09-.48L76.44,37.18a1.21,1.21,0,0,0-.21-1.82,1.5,1.5,0,0,0-.92-.28l-10.45.15,18-20.93,7.88-.12a1.36,1.36,0,0,0,1.41-1.31A1.37,1.37,0,0,0,90.67,11.6ZM16.86,32.76l3.59,3.14-5,.08A7.27,7.27,0,0,1,16.86,32.76Zm-1.38,5.8,5-.07L17,41.73A7.19,7.19,0,0,1,15.48,38.56ZM22.6,44.8a9,9,0,0,1-3.55-1.27l3.48-3.25Zm-.16-10.75-3.58-3.14a8.88,8.88,0,0,1,3.51-1.38Zm9.9,1.67-5,.08,3.49-3.25A7.27,7.27,0,0,1,32.34,35.72Zm-7.11-6.24a9,9,0,0,1,3.55,1.28L25.3,34Zm.23,15.28-.06-4.07,2.93,3.08a9.31,9.31,0,0,1-2.87,1ZM60.38,87l-20,.3L47.92,82l4.76-.07ZM48.84,79.38l-.28-18.07,2.86-.05.27,18.08Zm4.73-20.73-7.23.11L31.88,43.54a26.42,26.42,0,0,1,4,.49,29.35,29.35,0,0,0,6.75.58,29.2,29.2,0,0,0,6.72-.78,26.73,26.73,0,0,1,6.11-.71,13.36,13.36,0,0,1,5.87,1.1,17.13,17.13,0,0,0,4.15,1.14ZM72.3,37.7l-4.67,5.23a13.13,13.13,0,0,1-5.21-1.09,16.51,16.51,0,0,0-7-1.3,29.2,29.2,0,0,0-6.72.78,26.65,26.65,0,0,1-6.11.71,26.32,26.32,0,0,1-6.13-.53,30,30,0,0,0-6.74-.57H29.4L27,38.39Zm-21,14.53,2.86,0,0,2.59-2.86,0ZM55.49,47l2.86,0,0,2.59-2.86,0Zm-9.92,5.31,2.86,0,0,2.58-2.86,0Zm5.67-2.67-2.85,0,0-2.58,2.86,0Zm-10-2.43,2.85,0,0,2.58-2.85,0Z" transform="translate(-11.15 -11.6)"/><path class="b" d="M65.6,65.4A5.62,5.62,0,0,0,65,54.2h-.2A5.59,5.59,0,0,0,59.4,60,5.74,5.74,0,0,0,61,63.7c-3.4,6.7-8.6,11.6-16.4,15.7a27,27,0,0,1-16.3,3.1c-4.5-.6-8-2.6-10.2-5.9a14.69,14.69,0,0,1-.8-15.5,23.54,23.54,0,0,1,6.8-8c-.4-1.3-1-3.5-1.3-5.1C8.3,58.5,9.8,72.7,14.2,79.4c3.3,5,10,8.1,17.4,8.1a24.58,24.58,0,0,0,6-.7A38.38,38.38,0,0,0,65.6,65.4Z" transform="translate(-11.15 -11.6)"/><path class="b" d="M83.2,53c-7.6-8.9-18.8-13.8-31.6-13.8H50a5.49,5.49,0,0,0-4.9-3h-.2a5.6,5.6,0,0,0,.2,11.2h.2A5.63,5.63,0,0,0,50.2,44H52a38.11,38.11,0,0,1,21.3,6.5A26.79,26.79,0,0,1,83.9,63.3a13.86,13.86,0,0,1-.2,11.8A14.68,14.68,0,0,1,70,83.3a25.58,25.58,0,0,1-9.8-2.1c-1.1,1-3.1,2.6-4.5,3.6a30.87,30.87,0,0,0,12.9,3.1c9.6,0,16.7-5.3,19.4-10.6C90.9,71.5,90.7,61.5,83.2,53Z" transform="translate(-11.15 -11.6)"/><path class="b" d="M32.4,67.1A5.62,5.62,0,0,0,38,72.5h.2A5.6,5.6,0,0,0,38,61.3h-.2a1.7,1.7,0,0,0-.7.1,36.64,36.64,0,0,1-5.2-22.2,26.83,26.83,0,0,1,5.9-15.5c2.9-3.7,8.5-5.5,12.3-5.6,10.6-.2,15.1,13,15.4,18.3,1.3.3,3.5,1,5,1.5C69.3,21.7,59.3,13.3,49.7,13.3c-9,0-17.3,6.5-20.6,16.1-4.6,12.8-1.6,25.1,4,34.8A4.49,4.49,0,0,0,32.4,67.1Z" transform="translate(-11.15 -11.6)"/></svg>